<?xml version="1.0" encoding="UTF-8"?>
<svg xmlns="http://www.w3.org/2000/svg" xmlns:xlink="http://www.w3.org/1999/xlink" width="512px" height="512px" viewBox="0 0 512 512" version="1.1">
<defs>
<linearGradient id="linear0" gradientUnits="userSpaceOnUse" x1="0" y1="506" x2="0" y2="1588" gradientTransform="matrix(0.25,0,0,0.25,0,0)">
<stop offset="0" style="stop-color:rgb(100%,0%,0%);stop-opacity:1;"/>
<stop offset="1" style="stop-color:rgb(68.235294%,0%,0%);stop-opacity:1;"/>
</linearGradient>
</defs>
<g id="surface1">
<path style=" stroke:none;fill-rule:nonzero;fill:rgb(51.764706%,0%,0%);fill-opacity:1;" d="M 511.699219 384.664062 C 509.996094 378.953125 499.378906 344.527344 481.492188 311.519531 C 457.925781 268.035156 437.660156 236.949219 403.890625 205.378906 C 393.03125 195.226562 382.742188 186.152344 372.03125 178.003906 L 372.042969 178.003906 C 372.042969 178.003906 371.960938 177.949219 371.808594 177.835938 C 371.609375 177.683594 371.410156 177.535156 371.210938 177.382812 C 367.210938 174.292969 350.371094 160.105469 356.363281 144.441406 C 358.371094 139.191406 363.21875 134.828125 368.984375 131.296875 L 400.007812 131.046875 L 400.007812 119.546875 L 400 119.546875 C 400 119.546875 400.003906 119.546875 400.003906 119.546875 C 400.003906 119.546875 381.835938 113.375 350.050781 115.414062 C 320.21875 117.328125 293.414062 134.769531 288.402344 137.222656 C 272.335938 132.625 254.007812 128.570312 232.566406 124.929688 C 158.414062 112.351562 95.660156 132.40625 64.167969 154.261719 C 22.890625 182.910156 24.035156 209.605469 20.632812 222.957031 C 18.523438 231.226562 -0.222656 246.523438 0.00390625 257.253906 L 0.00390625 268.546875 L 3.875 272.539062 L 18.476562 267.574219 L 20.222656 261.484375 C 26.226562 259.335938 32.800781 256.351562 38.777344 253.894531 C 53.679688 247.765625 54.828125 244.429688 95.558594 238.355469 C 114.296875 235.558594 134.019531 234.753906 148.703125 234.632812 C 154.417969 246.695312 168.621094 271.496094 193.234375 283.394531 C 209.242188 291.128906 227.171875 295.089844 241.457031 297.121094 L 239.582031 306.542969 L 268 310.753906 L 268 299.261719 L 267.976562 299.25 C 267.984375 299.25 267.988281 299.25 267.988281 299.25 C 267.988281 299.25 244.128906 289.339844 229.449219 274.664062 C 219.460938 264.675781 217.070312 249.503906 216.5625 240.828125 L 216.652344 240.835938 C 240.699219 245.40625 261.707031 248.703125 311.941406 267.941406 C 321.234375 271.5 329.898438 275.402344 337.792969 279.339844 L 336.308594 280.175781 L 358.953125 298.4375 L 386 320.820312 L 386 309.328125 L 385.910156 309.242188 C 385.511719 308.75 354.710938 270.59375 302.953125 245.066406 C 260.175781 223.96875 225.054688 213.542969 176.394531 211.183594 C 123.207031 208.605469 84.015625 215.433594 84.015625 215.433594 C 84.015625 215.433594 85.109375 191.800781 125.265625 172.964844 C 160.183594 156.585938 215.113281 153.84375 278.15625 169.925781 C 367.21875 192.648438 397.597656 231.339844 435.910156 271.320312 C 460.214844 296.6875 482.558594 332.378906 496.644531 357.070312 L 494.273438 356.007812 L 501.570312 374.855469 L 512.007812 397.128906 L 512.007812 385.5625 L 511.699219 384.660156 Z M 511.699219 384.664062 "/>
<path style=" stroke:none;fill-rule:nonzero;fill:url(#linear0);" d="M 481.5 323 C 457.933594 279.515625 437.667969 248.429688 403.898438 216.859375 C 393.039062 206.703125 382.75 197.628906 372.035156 189.484375 L 372.050781 189.488281 C 372.050781 189.488281 371.964844 189.425781 371.808594 189.3125 C 371.617188 189.164062 371.421875 189.019531 371.226562 188.871094 C 367.253906 185.804688 350.375 171.601562 356.371094 155.921875 C 362.953125 138.71875 400.011719 131.027344 400.011719 131.027344 C 400.011719 131.027344 381.84375 124.855469 350.058594 126.894531 C 320.226562 128.808594 293.421875 146.253906 288.410156 148.703125 C 272.34375 144.105469 254.015625 140.050781 232.574219 136.414062 C 158.421875 123.832031 95.664062 143.886719 64.175781 165.746094 C 22.898438 194.390625 24.042969 221.085938 20.640625 234.4375 C 18.191406 244.046875 -6.707031 263.132812 1.753906 273.53125 C 7.035156 280.015625 24.609375 271.207031 38.785156 265.378906 C 53.6875 259.246094 54.835938 255.914062 95.566406 249.835938 C 114.304688 247.039062 134.027344 246.238281 148.710938 246.113281 C 154.425781 258.179688 168.628906 282.980469 193.242188 294.875 C 226.476562 310.9375 267.996094 310.734375 267.996094 310.734375 C 267.996094 310.734375 244.136719 300.820312 229.457031 286.144531 C 219.46875 276.15625 217.078125 260.984375 216.570312 252.308594 L 216.660156 252.316406 C 240.707031 256.886719 261.714844 260.183594 311.949219 279.421875 C 355.902344 296.257812 385.925781 320.738281 385.925781 320.738281 C 385.925781 320.738281 355.058594 282.242188 302.960938 256.546875 C 260.183594 235.449219 225.0625 225.027344 176.402344 222.667969 C 123.214844 220.085938 84.023438 226.914062 84.023438 226.914062 C 84.023438 226.914062 85.117188 203.28125 125.273438 184.445312 C 160.191406 168.066406 215.121094 165.324219 278.164062 181.410156 C 367.226562 204.128906 397.605469 242.820312 435.914062 282.800781 C 476.691406 325.355469 511.953125 396.972656 511.953125 396.972656 C 511.953125 396.972656 501.082031 359.132812 481.5 323 Z M 481.5 323 "/>
</g>
</svg>
